<?xml version="1.0" standalone="no"?><!DOCTYPE svg PUBLIC "-//W3C//DTD SVG 1.1//EN" "http://www.w3.org/Graphics/SVG/1.1/DTD/svg11.dtd"><svg t="1761037942532" class="icon" viewBox="0 0 1024 1024" version="1.1" xmlns="http://www.w3.org/2000/svg" p-id="15372" xmlns:xlink="http://www.w3.org/1999/xlink" width="200" height="200"><path d="M785.237333 793.941333a386.688 386.688 0 0 1-269.653333 109.184 386.474667 386.474667 0 0 1-267.093333-106.666666 32.768 32.768 0 0 1-6.826667-6.698667A386.218667 386.218667 0 0 1 128 515.541333a387.584 387.584 0 1 1 665.258667 270.336l-8.021334 8.064z m-198.570666-157.482666h-142.208a145.792 145.792 0 0 0-143.701334 121.045333c57.173333 50.773333 132.352 81.621333 214.784 81.621333s157.696-30.848 214.826667-81.578666a145.834667 145.834667 0 0 0-135.808-120.874667l-7.893333-0.213333zM515.541333 192a323.541333 323.541333 0 0 0-264.789333 509.568 209.92 209.92 0 0 1 184.277333-128.896l9.386667-0.213333h142.250667a209.92 209.92 0 0 1 193.706666 129.066666A323.584 323.584 0 0 0 515.541333 192z m0 96a120.917333 120.917333 0 1 1 0 241.834667 120.917333 120.917333 0 0 1 0-241.834667z m0 64a56.874667 56.874667 0 1 0 0 113.792 56.874667 56.874667 0 0 0 0-113.792z" fill="#333333" p-id="15373"></path></svg>